HIERARCHY
ROOT Hips
{
	OFFSET -3.958830 18.904000 13.208200
	CHANNELS 6 Xposition Yposition Zposition Zrotation Yrotation Xrotation 
	JOINT LHipJoint
	{
		OFFSET 0.000000 0.000000 0.000000
		CHANNELS 3 Zrotation Yrotation Xrotation
		JOINT LeftUpLeg
		{
			OFFSET 1.800000 -1.400000 0.085000
			CHANNELS 3 Zrotation Yrotation Xrotation
			JOINT LeftLeg
			{
				OFFSET 2.215000 -6.000000 0.000000
				CHANNELS 3 Zrotation Yrotation Xrotation
				JOINT LeftFoot
				{
					OFFSET 2.500000 -6.900000 0.000000
					CHANNELS 3 Zrotation Yrotation Xrotation
					JOINT LeftToeBase
					{
						OFFSET 0.200000 -0.500000 1.950000
						CHANNELS 3 Zrotation Yrotation Xrotation
						End Site
						{
							OFFSET 0.000000 0.000000 0.000000
						}
					}
				}
			}
		}
	}
	JOINT RHipJoint
	{
		OFFSET 0.000000 0.000000 0.000000
		CHANNELS 3 Zrotation Yrotation Xrotation
		JOINT RightUpLeg
		{
			OFFSET -1.800000 -1.400000 0.085000
			CHANNELS 3 Zrotation Yrotation Xrotation
			JOINT RightLeg
			{
				OFFSET -2.215000 -6.000000 0.000000
				CHANNELS 3 Zrotation Yrotation Xrotation
				JOINT RightFoot
				{
					OFFSET -2.500000 -6.900000 0.000000
					CHANNELS 3 Zrotation Yrotation Xrotation
					JOINT RightToeBase
					{
						OFFSET -0.200000 -0.500000 1.950000
						CHANNELS 3 Zrotation Yrotation Xrotation
						End Site
						{
							OFFSET 0.000000 0.000000 0.000000
						}
					}
				}
			}
		}
	}
	JOINT LowerBack
	{
		OFFSET 0.000000 0.000000 0.000000
		CHANNELS 3 Zrotation Yrotation Xrotation
		JOINT Spine
		{
			OFFSET -0.087000 1.940000 -0.288900
			CHANNELS 3 Zrotation Yrotation Xrotation
			JOINT Spine1
			{
				OFFSET 0.000000 1.950000 0.060000
				CHANNELS 3 Zrotation Yrotation Xrotation
				JOINT Neck
				{
					OFFSET 0.000000 0.000000 0.000000
					CHANNELS 3 Zrotation Yrotation Xrotation
					JOINT Neck1
					{
						OFFSET 0.000000 1.600000 0.340000
						CHANNELS 3 Zrotation Yrotation Xrotation
						JOINT Head
						{
							OFFSET 0.000000 1.667000 -0.240000
							CHANNELS 3 Zrotation Yrotation Xrotation
							End Site
							{
								OFFSET 0.000000 0.000000 0.000000
							}
						}
					}
				}
				JOINT LeftShoulder
				{
					OFFSET 0.000000 0.000000 0.000000
					CHANNELS 3 Zrotation Yrotation Xrotation
					JOINT LeftArm
					{
						OFFSET 2.700000 1.550000 -0.730000
						CHANNELS 3 Zrotation Yrotation Xrotation
						JOINT LeftForeArm
						{
							OFFSET 5.450000 0.000000 0.000000
							CHANNELS 3 Zrotation Yrotation Xrotation
							JOINT LeftHand
							{
								OFFSET 3.450000 0.000000 0.000000
								CHANNELS 3 Zrotation Yrotation Xrotation
								JOINT LeftHandIndex1
								{
									OFFSET 0.750000 0.000000 0.000000
									CHANNELS 3 Zrotation Yrotation Xrotation
									End Site
									{
										OFFSET 0.000000 0.000000 0.000000
									}
								}
							}
						}
					}
				}
				JOINT RightShoulder
				{
					OFFSET 0.000000 0.000000 0.000000
					CHANNELS 3 Zrotation Yrotation Xrotation
					JOINT RightArm
					{
						OFFSET -2.700000 1.550000 -0.730000
						CHANNELS 3 Zrotation Yrotation Xrotation
						JOINT RightForeArm
						{
							OFFSET -5.450000 0.000000 0.000000
							CHANNELS 3 Zrotation Yrotation Xrotation
							JOINT RightHand
							{
								OFFSET -3.450000 0.000000 0.000000
								CHANNELS 3 Zrotation Yrotation Xrotation
								JOINT RightHandIndex1
								{
									OFFSET -0.750000 0.000000 0.000000
									CHANNELS 3 Zrotation Yrotation Xrotation
									End Site
									{
										OFFSET 0.000000 0.000000 0.000000
									}
								}
							}
						}
					}
				}
			}
		}
	}
}
MOTION
Frames: 13
Frame Time: 0.016667
0.349200 16.789390 -10.554690 3.640172 58.907093 0.859586 -15.680869 13.634849 3.391136 15.147180 -0.355723 11.908256 -8.472825 6.995267 2.374085 0.661475 6.082255 2.657180 -0.089400 -0.232020 -0.254030 17.695120 -10.244369 2.659831 -10.427777 -1.479206 -19.940293 13.032806 -5.604628 8.246261 0.036833 -2.925480 3.302407 -0.139020 0.113450 0.006750 -3.421363 -3.097873 -7.809594 14.052214 -5.893864 7.470743 -0.260683 -4.146415 15.877122 4.674322 -3.020588 -15.184365 -10.314703 -22.714472 33.762949 5.402100 -30.392800 -5.763700 7.036412 -3.783699 8.472757 -66.491104 -14.033720 19.019940 -152.644902 -52.026880 120.007302 -3.317315 3.695465 0.155590 -0.124470 -0.066560 0.071280 -15.274521 5.248775 12.789918 19.933803 -17.190305 -5.136670 0.924048 -7.914324 -0.236307 3.113333 -0.601158 -0.034000 0.138540 0.159200 0.125830 
0.429150 16.740920 -10.382970 1.863219 56.531108 -0.381861 -15.637736 13.714135 3.487763 15.639985 -0.597172 13.326541 -8.531182 7.246846 2.631700 0.754396 6.236460 2.607854 -0.125030 -0.298960 -0.254040 17.708037 -10.289921 2.684304 -8.851292 -1.237505 -20.829663 14.286153 -6.510118 11.046203 0.020734 -3.018798 3.272651 -0.206220 0.085360 0.005980 -3.614466 -3.115869 -7.951451 16.095474 -5.887378 7.934162 -1.383075 -3.878149 11.669407 5.036926 -3.860945 -14.777559 -12.361099 -20.267108 35.892298 4.296070 -29.287090 -3.609100 5.772413 0.994841 8.048383 -62.632278 -5.276304 15.441155 -151.487763 -48.655841 116.870318 -3.240786 3.826550 0.185340 -0.150890 -0.050910 0.058930 -14.884035 1.753637 11.880414 19.754423 -18.861539 -5.570877 -1.544786 -7.986324 0.234091 3.174444 -0.616871 -0.027900 0.105260 0.163750 0.114540 
0.518830 16.710300 -10.193810 -0.481885 52.108120 -1.333690 -15.563859 13.756934 3.600657 15.456110 -0.772403 15.068634 -8.412555 7.300336 1.927140 0.844970 6.358064 2.566984 -0.154540 -0.345940 -0.260990 17.783763 -10.210245 2.745951 -6.345833 -0.537600 -21.895415 15.399478 -7.318888 13.598033 -0.004435 -3.102623 3.259218 -0.257510 0.066620 -0.000170 -3.877618 -3.263263 -8.105043 19.172217 -6.266769 7.388525 -3.032947 -3.912714 6.830494 5.291207 -4.925771 -14.538006 -15.309758 -16.063837 39.841251 2.552600 -26.594310 -0.703880 4.552879 6.267174 7.801813 -58.029255 4.610071 12.586924 -150.650581 -44.994092 114.240984 -3.190494 3.931158 0.213860 -0.165870 -0.038010 0.051740 -14.514433 -1.839052 10.834238 18.476090 -18.593336 -5.315542 -5.553423 -5.034061 0.697981 3.164590 -0.708186 -0.027920 0.082270 0.170020 0.102000 
0.568430 16.703720 -9.992330 -1.812144 47.535670 -1.178218 -15.500824 13.917703 3.692858 14.904560 -0.869336 15.702060 -8.155136 7.342613 1.969586 0.921960 6.338321 2.565946 -0.183950 -0.381880 -0.268320 17.826577 -10.115837 2.858469 -3.648953 0.313193 -22.989431 15.449665 -7.844832 16.029950 -0.026557 -3.098393 3.283694 -0.314360 0.043750 -0.018210 -4.002884 -3.644112 -8.291440 20.974812 -6.323285 6.964990 -4.354976 -3.608113 1.008747 5.409005 -5.489516 -15.123351 -18.193332 -10.994851 46.582945 1.515710 -23.600540 3.426690 3.055936 9.787014 7.858394 -51.171032 13.230315 11.035193 -151.126463 -41.456880 114.224344 -3.180470 3.965481 0.240310 -0.188830 -0.011740 0.050070 -13.489204 -3.808738 10.263549 17.245768 -19.669323 -5.394715 -9.781856 -3.293659 1.070686 3.209350 -0.784534 -0.019420 0.062160 0.163770 0.098520 
0.594570 16.683760 -9.779880 -2.196262 41.172364 -0.741328 -15.439986 14.004368 3.738869 13.329645 -0.585553 17.165371 -8.109118 7.455281 2.308200 0.955553 6.375503 2.536331 -0.165170 -0.352880 -0.253860 17.911371 -10.020071 2.906315 -0.847154 1.126388 -23.421886 14.084394 -8.022523 18.694632 -0.055092 -3.096506 3.295830 -0.308460 0.031540 -0.030290 -4.000073 -3.941964 -8.317001 21.588281 -6.368624 6.441786 -5.016299 -3.619503 -2.018313 5.314360 -6.694780 -15.280796 -21.670822 -5.713469 50.691754 1.703940 -19.685370 4.586350 0.949835 12.529045 7.791710 -44.531553 20.231997 8.994739 -150.588531 -41.868762 114.114957 -3.210733 3.954377 0.275140 -0.202190 0.013800 0.055500 -11.115791 -5.173685 9.441766 14.694136 -21.201844 -5.099708 -13.739008 2.965572 0.848459 3.100756 -0.945570 -0.024530 0.067080 0.153310 0.084250 
0.588780 16.675500 -9.570930 -1.984778 35.897355 -0.633761 -15.396128 14.051575 3.727155 12.275316 -0.424276 18.088182 -8.631489 7.866355 4.131453 0.926216 6.485404 2.477844 -0.111840 -0.290740 -0.195350 17.960770 -10.038668 2.939220 1.288534 1.487525 -22.572563 12.506958 -7.925738 20.446670 -0.100593 -3.123835 3.287468 -0.261100 0.011110 -0.037250 -3.928242 -3.977992 -8.325240 20.489098 -5.869787 6.020014 -4.692748 -3.305187 -4.062565 5.076058 -6.685209 -14.823332 -22.823641 -2.225393 55.172943 1.043610 -16.405370 4.913700 -1.874070 13.292526 6.977178 -37.282148 22.358780 7.892022 -148.961035 -46.170297 115.968272 -3.276617 3.869337 0.317840 -0.206880 0.046220 0.058840 -7.694562 -5.970488 8.552617 13.047873 -23.629355 -5.075084 -19.875230 6.967797 0.601344 3.040764 -1.116432 -0.042100 0.093970 0.133150 0.052120 
0.580190 16.666870 -9.361750 -1.380035 31.178756 -0.179697 -15.394872 14.131956 3.689766 11.081638 -0.296340 18.231561 -9.009683 8.356287 6.951056 0.881758 6.567371 2.424359 -0.069930 -0.245730 -0.136860 17.955946 -10.081211 2.992658 3.035348 1.735734 -21.534929 10.604504 -7.472320 21.405900 -0.123402 -3.067781 3.304817 -0.224690 -0.014660 -0.038430 -3.736136 -4.024805 -8.336373 18.400079 -5.168782 5.396218 -3.229305 -2.826471 -6.310507 4.774131 -6.516653 -14.250786 -23.618104 0.610454 59.281767 0.290000 -13.932720 5.180400 -2.986014 14.285319 5.900213 -32.854557 22.011259 6.393826 -140.861352 -54.654824 111.821940 -3.288028 3.779280 0.354610 -0.210830 0.076440 0.051640 -5.636719 -7.084982 7.771283 12.568834 -26.033602 -5.381237 -27.186369 11.874216 -0.056668 3.007278 -1.281536 -0.055160 0.110170 0.118800 0.019300 
0.548430 16.645810 -9.174320 -0.869653 26.410987 0.440177 -15.440400 14.281855 3.617819 9.709965 -0.157743 17.179585 -9.102620 8.874387 10.684541 0.827665 6.621897 2.388313 -0.056870 -0.236380 -0.104170 17.904982 -10.051021 3.096513 4.841621 2.230723 -21.003712 8.351966 -6.813542 22.477968 -0.123351 -2.984678 3.335664 -0.209620 -0.022000 -0.037440 -3.413135 -4.284213 -8.356441 16.141704 -4.900166 5.223259 -1.252798 -2.658142 -8.871258 4.575763 -7.052713 -13.528269 -25.898339 3.389717 60.737193 -0.879020 -11.658860 5.210420 -2.936435 16.203742 4.666049 -31.037725 20.988638 5.236142 -125.865212 -61.388539 98.915615 -3.292089 3.687434 0.378680 -0.206660 0.088530 0.042490 -4.725148 -8.491767 6.960124 13.005116 -27.921834 -6.231361 -35.493171 20.982776 -2.196245 2.967274 -1.444506 -0.072000 0.124980 0.120400 -0.004970 
0.483930 16.609350 -9.003660 0.318601 21.378794 1.287817 -15.481014 14.373769 3.537181 8.219088 0.049947 15.317597 -9.916437 9.781664 15.371088 0.809869 6.800036 2.314207 -0.060210 -0.242570 -0.086710 17.857336 -10.062803 3.190949 6.182911 2.740392 -20.760482 5.564999 -5.899428 23.587056 -0.110066 -2.905457 3.367680 -0.205700 -0.013290 -0.035500 -3.110848 -4.396316 -8.370632 13.113267 -4.990706 5.213856 -0.044650 -2.861447 -11.430520 4.180591 -7.370722 -12.827067 -27.452259 6.156674 61.147414 -1.902760 -8.800720 6.015140 -1.079695 18.767350 3.898339 -29.447465 19.893698 4.713178 -105.756202 -66.460881 81.401989 -3.327013 3.582539 0.386020 -0.187120 0.087120 0.037770 -5.280585 -10.795274 5.941446 14.947400 -28.000152 -7.615494 -41.940005 34.066429 -6.257081 2.927200 -1.561459 -0.090400 0.130080 0.122870 -0.023840 
0.404220 16.586670 -8.849910 1.638452 16.085053 2.260289 -15.504447 14.447067 3.485664 6.512592 0.127415 12.450550 -10.930986 10.975593 20.809709 0.843442 7.108329 2.189706 -0.076700 -0.265920 -0.081100 17.819904 -10.071333 3.282762 7.108194 3.260299 -20.680305 2.851994 -4.861165 24.293833 -0.093122 -2.804846 3.406832 -0.221580 -0.007320 -0.029800 -2.862483 -4.483615 -8.420416 10.371333 -5.139454 5.290779 0.656931 -3.085469 -14.300708 3.862795 -7.776926 -12.750829 -29.270523 9.032748 60.792206 -2.769710 -5.854000 7.047550 0.658350 20.593622 3.553455 -27.616328 19.284371 4.520398 -79.902830 -68.774317 58.937469 -3.352766 3.691409 0.391510 -0.172670 0.086000 0.029740 -5.858899 -12.247107 5.367275 17.582217 -27.803879 -8.828432 -49.395990 46.355815 -12.048390 2.904069 -1.571214 -0.099890 0.120650 0.130600 -0.038080 
0.301500 16.574060 -8.724690 3.118242 10.478779 2.793760 -15.505050 14.417185 3.492848 4.819037 -0.084200 9.223416 -12.382196 12.585558 26.533604 0.939647 7.647397 1.983819 -0.077070 -0.262280 -0.069930 17.813040 -10.100459 3.317734 7.540293 3.616317 -20.322726 0.297124 -3.794331 24.534007 -0.094875 -2.702785 3.444677 -0.224030 -0.007960 -0.031610 -2.684066 -4.407164 -8.465544 7.241927 -5.611236 5.605425 0.974651 -3.717098 -16.766004 3.371664 -7.951436 -12.844073 -30.486082 12.198078 60.630805 -2.596320 -2.730210 7.291280 2.106382 21.301410 3.229983 -25.814325 19.340758 2.798909 -53.473690 -67.533228 37.356642 -3.345094 3.761454 0.411740 -0.172030 0.099630 0.026810 -5.903521 -13.126187 4.930302 21.380458 -26.861367 -10.341988 -59.440561 59.346454 -21.493336 2.721437 -1.356085 -0.109360 0.123130 0.130180 -0.051830 
0.195600 16.555310 -8.621250 4.884474 4.781701 2.592734 -15.524896 14.234558 3.601148 3.558509 -0.662764 6.174424 -15.172456 15.101550 32.150415 1.136202 8.578571 1.656477 -0.062530 -0.239460 -0.043960 17.805770 -10.176513 3.212107 6.947859 3.474758 -19.042341 -1.331334 -3.029468 23.640924 -0.108721 -2.610556 3.476238 -0.211690 -0.014060 -0.027710 -2.480724 -4.109554 -8.470246 3.220588 -5.743818 5.750644 1.268920 -4.279360 -17.837459 3.096890 -7.634096 -12.732758 -30.166494 14.747220 60.768659 -2.253680 0.411110 6.975410 2.649282 20.607312 2.633459 -24.363152 18.017034 0.715708 -29.993711 -63.144263 19.407106 -3.378346 3.659703 0.437560 -0.169770 0.122160 0.023850 -5.441572 -13.263349 4.851757 25.866258 -26.944374 -12.434621 -78.366266 71.924586 -38.727001 1.811454 -0.079010 -0.118570 0.128540 0.124290 -0.070990 
0.085980 16.540260 -8.558820 6.770789 -0.921963 1.006397 -15.549681 13.978378 3.808670 3.286498 -1.686804 3.813285 -19.124970 18.628535 37.475584 1.427325 9.889161 1.221079 -0.024960 -0.189250 0.016900 17.814063 -10.237088 2.969355 5.529515 2.945767 -16.652427 -2.622859 -2.565241 22.584781 -0.155199 -2.616854 3.462853 -0.179030 -0.040980 -0.013590 -2.319130 -3.836796 -8.397018 -1.026638 -6.144572 6.362887 0.649442 -5.420438 -16.312373 2.861404 -6.690834 -12.738957 -28.058769 16.629196 61.499818 -2.509660 4.034410 5.729170 1.014589 19.031380 1.074416 -22.061928 16.063205 -1.603935 -10.484142 -56.468877 6.956641 -3.439384 3.429631 0.471020 -0.167090 0.162380 0.011760 -3.087407 -13.704238 7.378356 32.175441 -23.157826 -3.546139 -108.398055 68.539082 -74.954795 1.632763 1.987863 -0.123780 0.132790 0.109910 -0.104160 
